<svg width="28" height="17" viewBox="0 0 28 17" fill="none" xmlns="http://www.w3.org/2000/svg">
<path d="M0.350085 7.31954C0.574241 7.09186 0.87826 6.96394 1.19526 6.96394L23.9172 7.28593L18.7848 2.07516C18.6736 1.96228 18.5855 1.82827 18.5253 1.68079C18.4652 1.53331 18.4342 1.37524 18.4342 1.2156C18.4342 1.05597 18.4652 0.897894 18.5253 0.750411C18.5855 0.602927 18.6736 0.468921 18.7848 0.356042C18.8959 0.243163 19.0278 0.153622 19.173 0.0925323C19.3182 0.0314426 19.4738 0 19.631 0C19.7882 0 19.9438 0.0314426 20.089 0.0925323C20.2342 0.153622 20.3661 0.243163 20.4773 0.356042L27.6488 7.64044C27.7602 7.75322 27.8485 7.88719 27.9087 8.03469C27.969 8.18219 28 8.34031 28 8.5C28 8.65969 27.969 8.81782 27.9087 8.96531C27.8485 9.11281 27.7602 9.24678 27.6488 9.35956L20.4773 16.644C20.3661 16.7568 20.2342 16.8464 20.089 16.9075C19.9438 16.9686 19.7882 17 19.631 17C19.4738 17 19.3182 16.9686 19.173 16.9075C19.0278 16.8464 18.8959 16.7568 18.7848 16.644C18.6736 16.5311 18.5855 16.3971 18.5253 16.2496C18.4652 16.1021 18.4342 15.944 18.4342 15.7844C18.4342 15.6248 18.4652 15.4667 18.5253 15.3192C18.5855 15.1717 18.6736 15.0377 18.7848 14.9248L23.9172 9.71407L1.19526 9.39208C0.87826 9.39208 0.574241 9.26417 0.350085 9.03649C0.12593 8.80881 0 8.5 0 8.17801C0 7.85602 0.12593 7.54722 0.350085 7.31954Z" fill="white"/>
</svg>
