<svg width="17" height="28" viewBox="0 0 17 28" fill="none" xmlns="http://www.w3.org/2000/svg">
<g clip-path="url(#clip0_96_3)">
<path d="M9.68046 0.350085C9.90814 0.57424 10.0361 0.87826 10.0361 1.19526L9.71406 23.9172L14.9248 18.7848C15.0377 18.6736 15.1717 18.5855 15.3192 18.5253C15.4667 18.4652 15.6248 18.4342 15.7844 18.4342C15.944 18.4342 16.1021 18.4652 16.2496 18.5253C16.3971 18.5855 16.5311 18.6736 16.644 18.7848C16.7568 18.8959 16.8464 19.0278 16.9075 19.173C16.9686 19.3182 17 19.4738 17 19.631C17 19.7882 16.9686 19.9438 16.9075 20.089C16.8464 20.2342 16.7568 20.3661 16.644 20.4773L9.35956 27.6488C9.24678 27.7602 9.11281 27.8485 8.96531 27.9087C8.81781 27.969 8.65969 28 8.5 28C8.34031 28 8.18218 27.969 8.03469 27.9087C7.88719 27.8485 7.75321 27.7602 7.64044 27.6488L0.356038 20.4773C0.243159 20.3661 0.153619 20.2342 0.0925284 20.089C0.031438 19.9438 -8.64969e-07 19.7882 -8.58099e-07 19.631C-8.51229e-07 19.4738 0.031438 19.3182 0.0925285 19.173C0.153619 19.0278 0.243159 18.8959 0.356038 18.7848C0.468917 18.6736 0.602922 18.5855 0.750405 18.5253C0.897889 18.4652 1.05596 18.4342 1.2156 18.4342C1.37523 18.4342 1.53331 18.4652 1.68079 18.5253C1.82827 18.5855 1.96228 18.6736 2.07516 18.7848L7.28593 23.9172L7.60792 1.19526C7.60792 0.87826 7.73583 0.57424 7.96351 0.350085C8.19119 0.125929 8.5 -3.71547e-07 8.82199 -3.57472e-07C9.14398 -3.43398e-07 9.45278 0.125929 9.68046 0.350085Z" fill="#D81A5D"/>
</g>
<defs>
<clipPath id="clip0_96_3">
<rect width="28" height="17" fill="white" transform="translate(17) rotate(90)"/>
</clipPath>
</defs>
</svg>
