<svg width="134" height="134" viewBox="0 0 134 134" fill="none" xmlns="http://www.w3.org/2000/svg">
<g opacity="0.3">
<path opacity="0.65" d="M66.9343 5.39793C100.86 5.39793 128.471 33.0083 128.471 66.9343C128.471 100.86 100.86 128.471 66.9343 128.471C33.0083 128.471 5.39793 100.86 5.39793 66.9343C5.39793 33.0083 33.0083 5.39793 66.9343 5.39793ZM66.9343 0C29.9585 0 0 29.9585 0 66.9343C0 103.91 29.9585 133.869 66.9343 133.869C103.91 133.869 133.869 103.91 133.869 66.9343C133.869 29.9585 103.91 0 66.9343 0Z" fill="white"/>
</g>
<path d="M93 66.5L56 42C56.0538 78.9398 56 60.8044 56 91L93 66.5Z" fill="white"/>
</svg>
