<svg width="220" height="223" viewBox="0 0 220 223" fill="none" xmlns="http://www.w3.org/2000/svg">
<path d="M117.982 206.009L116.795 206.024L116.98 219.017L128.766 213.55L127.768 211.398L120.762 214.649C140.625 182.184 154.965 142.341 150.815 103.758C150.711 102.489 150.589 101.218 150.453 99.943C150.377 99.2254 150.288 98.5099 150.205 97.7933C146.319 67.3777 133.67 39.713 113.836 16.41C108.952 10.7314 103.787 5.4812 98.1359 0.564023C97.312 -0.183716 96.0773 1.08046 96.9776 1.89565C115.266 17.8431 129.533 38.0865 138.687 60.544C152.804 95.7528 152.804 131.798 141.076 167.725C137.341 178.873 132.757 189.441 127.236 199.836C126.737 200.769 126.238 201.702 125.725 202.631C123.668 206.366 121.513 210.048 119.281 213.68L119.171 205.983L117.984 205.998L117.982 206.009Z" fill="#D81A5D"/>
</svg>
