<svg width="175" height="161" viewBox="0 0 175 161" fill="none" xmlns="http://www.w3.org/2000/svg">
<path d="M19.3777 146.797L18.6117 145.89L8.69498 154.287L20.4051 159.916L21.4328 157.778L14.4715 154.433C52.1615 149.147 92.0411 134.909 119.2 107.192C120.115 106.305 121.019 105.404 121.917 104.488C122.423 103.974 122.919 103.451 123.42 102.932C144.439 80.607 157.768 53.2635 163.163 23.1415C164.446 15.7626 165.219 8.43849 165.426 0.950171C165.48 -0.161152 163.719 -0.311524 163.662 0.901638C162.965 25.1567 156.395 49.0349 144.868 70.3715C126.646 103.642 98.8096 126.542 63.6146 140.309C52.632 144.508 41.5586 147.681 30.0236 150.022C28.9861 150.229 27.9486 150.437 26.9055 150.63C22.714 151.415 18.5014 152.09 14.2784 152.673L20.153 147.698L19.387 146.791L19.3777 146.797Z" fill="#D81A5D"/>
</svg>
