<svg width="68" height="68" viewBox="0 0 68 68" fill="none" xmlns="http://www.w3.org/2000/svg">
<g clip-path="url(#clip0_2_184)">
<path fill-rule="evenodd" clip-rule="evenodd" d="M38.5155 45.4216H50.9998V54.3201H38.5155V45.4216ZM9.4872 -0.000233249H11.6874C13.1709 -0.000233249 14.7421 1.44605 14.7421 3.32016V15.8045H43.8281C44.2759 15.8045 45.6186 14.2131 45.9863 13.8455L58.3379 1.49387C58.9913 0.83997 59.7191 -0.000233249 60.9609 -0.000233249C63.2852 -0.000233249 63.7044 0.950272 65.3769 2.62277C66.2377 3.48363 67.9999 4.83556 67.9999 6.37468C67.9999 8.14639 67.7798 8.38867 66.5058 9.66179L62.3887 13.779C61.8256 14.3421 60.8237 15.2161 60.4296 15.8044C61.8968 15.8044 64.551 15.6433 65.6823 15.997C66.7922 16.344 68 17.608 68 18.9919V64.945C68 66.428 66.4284 67.9996 64.9454 67.9996H8.63284C4.34626 67.9996 0 63.6534 0 59.3668V8.49961C0 6.20496 1.43749 3.80038 2.61918 2.61869C4.85339 0.384611 7.00357 0.0419746 9.48745 -0.000488281L9.4872 -0.000233249ZM2.25767 52.8591V16.4685C2.25767 12.2027 1.36531 6.82213 4.48232 4.08385C6.45295 2.35269 8.30576 2.25757 11.156 2.25757C12.0586 2.25757 12.4841 2.93378 12.4841 3.85126V48.0778C12.4841 48.7021 12.3921 49.1988 12.0716 49.5246C11.1886 50.4222 8.38457 48.8239 4.38681 51.1367C2.92981 51.9797 2.94855 52.3963 2.25755 52.859L2.25767 52.8591ZM40.1092 23.5076C40.5949 23.6373 44.362 27.4035 44.492 27.8903C42.9904 27.8903 41.6536 28.2888 40.1092 28.2888L39.7391 27.8619C39.7107 26.3887 40.1092 25.0521 40.1092 23.5076ZM37.4529 28.2888H18.1951C16.5823 28.2888 16.4903 30.6795 18.4608 30.6795H21.5154V61.2264C21.5154 61.951 22.1819 62.5349 22.8991 62.354C23.6803 62.1569 23.906 61.4777 23.906 60.5623V45.4216H36.2575V54.3201H28.6872C26.6486 54.3201 26.8502 56.7108 28.4216 56.7108H50.9997C52.1146 56.7108 53.2575 55.7399 53.2575 54.7186V37.3202C53.2575 35.8848 50.9997 35.8848 50.9997 37.3202V43.0311H23.906V30.6795C28.8064 30.6795 38.7509 30.9614 43.1055 30.3556C47.2413 29.7801 46.5596 29.608 50.3024 25.865C51.6188 24.5488 52.8377 23.3297 54.1541 22.0135C54.6659 21.5017 57.7625 18.1952 58.1716 18.1952H64.8122C65.3776 18.1952 65.742 19.017 65.742 19.6561V64.2812C65.742 65.2768 65.2766 65.7421 64.281 65.7421H10.0935C7.07408 65.7421 4.96956 64.7065 3.7162 62.9554C2.19825 60.8344 1.81621 58.5584 3.03603 55.8956C3.9442 53.9129 6.30695 52.2461 8.62736 52.1899C10.3714 52.1477 11.6177 52.3886 12.8875 51.8017C13.7202 51.4167 14.742 50.2109 14.742 49.0078V18.1953H41.5701C40.6965 19.4998 39.0104 20.334 38.2022 21.9992C37.8393 22.7469 37.3602 26.3962 37.3583 27.4924C37.3578 27.8421 37.4414 27.7743 37.4529 28.2891V28.2888ZM46.4841 26.4295L41.671 21.5473L53.8886 9.26368L58.7356 14.0453C58.5421 14.6787 53.2767 19.7033 52.6931 20.2869C51.7601 21.22 47.071 26.0365 46.4841 26.4295ZM55.6154 7.60291L57.1384 6.00539L62.0558 10.8576L60.4583 12.3807L55.6153 7.60279L55.6154 7.60291ZM63.6169 9.16397L58.8683 4.34998C59.1777 3.8695 60.638 2.31278 61.2235 2.31061C62.0612 2.30755 63.9467 4.52276 64.8455 5.41181C66.0803 6.63315 65.9738 6.87939 64.7789 8.06822C64.3779 8.46735 64.0667 8.86265 63.6168 9.16397H63.6169Z" fill="#D81A5D"/>
</g>
<defs>
<clipPath id="clip0_2_184">
<rect width="68" height="68" fill="white"/>
</clipPath>
</defs>
</svg>
