<svg width="26" height="26" viewBox="0 0 26 26" fill="none" xmlns="http://www.w3.org/2000/svg">
<g clip-path="url(#clip0_2_219)">
<path fill-rule="evenodd" clip-rule="evenodd" d="M14.5454 17.0349H19.0621V20.2542H14.5454V17.0349ZM4.04322 0.601655H4.83922C5.37594 0.601655 5.94441 1.12491 5.94441 1.80294V6.31966H16.4674C16.6294 6.31966 17.1152 5.74391 17.2482 5.6109L21.7169 1.14221C21.9533 0.905633 22.2167 0.601655 22.6659 0.601655C23.5068 0.601655 23.6585 0.945539 24.2636 1.55063C24.575 1.86209 25.2126 2.3512 25.2126 2.90804C25.2126 3.54903 25.1329 3.63668 24.672 4.09729L23.1825 5.58686C22.9788 5.79059 22.6163 6.1068 22.4737 6.31961C23.0045 6.31961 23.9648 6.26135 24.3741 6.38932C24.7756 6.51485 25.2126 6.97213 25.2126 7.47283V24.0982C25.2126 24.6348 24.644 25.2034 24.1075 25.2034H3.73412C2.18328 25.2034 0.61084 23.6309 0.61084 22.0801V3.67682C0.61084 2.84663 1.13091 1.97668 1.55844 1.54916C2.36675 0.740888 3.14467 0.616925 4.04331 0.601562L4.04322 0.601655ZM1.42764 19.7257V6.55988C1.42764 5.01655 1.1048 3.06992 2.2325 2.07924C2.94546 1.45292 3.61579 1.41851 4.64698 1.41851C4.97352 1.41851 5.12746 1.66316 5.12746 1.99509V17.9958C5.12746 18.2217 5.0942 18.4014 4.97822 18.5193C4.65879 18.844 3.6443 18.2658 2.19795 19.1025C1.67082 19.4075 1.6776 19.5582 1.4276 19.7256L1.42764 19.7257ZM15.122 9.10658C15.2977 9.15349 16.6606 10.5161 16.7076 10.6922C16.1644 10.6922 15.6807 10.8364 15.122 10.8364L14.9881 10.6819C14.9778 10.1489 15.122 9.66535 15.122 9.10658ZM14.1609 10.8364H7.19367C6.61017 10.8364 6.57686 11.7013 7.28977 11.7013H8.39492V22.7529C8.39492 23.0151 8.63606 23.2263 8.89552 23.1608C9.17813 23.0895 9.25979 22.8438 9.25979 22.5126V17.0349H13.7285V20.2542H10.9896C10.252 20.2542 10.325 21.1192 10.8935 21.1192H19.0621C19.4654 21.1192 19.8789 20.7679 19.8789 20.3984V14.1038C19.8789 13.5845 19.0621 13.5845 19.0621 14.1038V16.17H9.25979V11.7013C11.0327 11.7013 14.6305 11.8033 16.206 11.5841C17.7023 11.3759 17.4557 11.3136 18.8098 9.95946C19.286 9.48326 19.727 9.04222 20.2033 8.56602C20.3885 8.38084 21.5088 7.18458 21.6568 7.18458H24.0593C24.2639 7.18458 24.3957 7.48192 24.3957 7.71314V23.8581C24.3957 24.2183 24.2273 24.3866 23.8671 24.3866H4.26259C3.17018 24.3866 2.40878 24.012 1.95533 23.3784C1.40615 22.6111 1.26793 21.7876 1.70925 20.8242C2.03782 20.1069 2.89263 19.5039 3.73214 19.4836C4.36311 19.4683 4.81403 19.5555 5.27343 19.3431C5.57469 19.2038 5.94436 18.7676 5.94436 18.3323V7.18463H15.6505C15.3345 7.65658 14.7244 7.95839 14.432 8.56086C14.3007 8.83134 14.1274 10.1517 14.1267 10.5482C14.1265 10.6748 14.1568 10.6502 14.1609 10.8365V10.8364ZM17.4284 10.1637L15.687 8.39736L20.1072 3.95325L21.8608 5.68319C21.7908 5.91234 19.8859 7.73021 19.6747 7.94137C19.3372 8.27893 17.6407 10.0215 17.4284 10.1637ZM20.732 3.3524L21.283 2.77443L23.0621 4.52993L22.4841 5.08096L20.7319 3.35236L20.732 3.3524ZM23.6268 3.91718L21.9089 2.17552C22.0208 2.00169 22.5491 1.43848 22.761 1.4377C23.064 1.43659 23.7461 2.23803 24.0713 2.55968C24.5181 3.00155 24.4795 3.09064 24.0473 3.52075C23.9022 3.66515 23.7896 3.80816 23.6268 3.91718H23.6268Z" fill="white"/>
</g>
<defs>
<clipPath id="clip0_2_219">
<rect width="24.6018" height="24.6018" fill="white" transform="translate(0.610626 0.601807)"/>
</clipPath>
</defs>
</svg>
